# xmcd CD database file
#
# Track frame offsets:
#	150
#	32559
#	51420
#	83825
#
# Disc length: 1369 seconds
#
# Revision: 4
# Processed by: cddbd v1.5.2PL0 Copyright (c) Steve Scherf et al.
# Submitted via: CDex 1.70beta3
#
DISCID=2a055704
DTITLE=4way - yes, prisoner／Cras numquam scire
DYEAR=2011
DGENRE=Anime
TTITLE0=maRIONnetTe - yes, prisoner
TTITLE1=Yucca feat.Hugh Anthony Disward(小野大輔) - Cras numquam seire
TTITLE2=maRIONnetTe /yes, prisoner(Instrumental)
TTITLE3=Yucca feat.Hugh Anthony Disward(小野大輔) - Cras numquam seire(Instrumental)
EXTD=YEAR: 2011
EXTT0=
EXTT1=
EXTT2=
EXTT3=
PLAYORDER=
